G75*
%MOIN*%
%OFA0B0*%
%FSLAX25Y25*%
%IPPOS*%
%LPD*%
%AMOC8*
5,1,8,0,0,1.08239X$1,22.5*
%
%ADD10C,0.06000*%
%ADD11OC8,0.07100*%
%ADD12OC8,0.06000*%
%ADD13C,0.06800*%
%ADD14C,0.05200*%
%ADD15C,0.04800*%
D10*
X0026000Y0073400D02*
X0026000Y0078600D01*
X0036000Y0078600D02*
X0036000Y0073400D01*
X0046000Y0073400D02*
X0046000Y0078600D01*
X0056000Y0078600D02*
X0056000Y0073400D01*
X0066000Y0073400D02*
X0066000Y0078600D01*
X0076000Y0078600D02*
X0076000Y0073400D01*
X0086000Y0073400D02*
X0086000Y0078600D01*
X0096000Y0078600D02*
X0096000Y0073400D01*
X0106000Y0073400D02*
X0106000Y0078600D01*
X0106000Y0103400D02*
X0106000Y0108600D01*
X0096000Y0108600D02*
X0096000Y0103400D01*
X0086000Y0103400D02*
X0086000Y0108600D01*
X0076000Y0108600D02*
X0076000Y0103400D01*
X0066000Y0103400D02*
X0066000Y0108600D01*
X0056000Y0108600D02*
X0056000Y0103400D01*
X0046000Y0103400D02*
X0046000Y0108600D01*
X0036000Y0108600D02*
X0036000Y0103400D01*
X0026000Y0103400D02*
X0026000Y0108600D01*
D11*
X0036000Y0136000D03*
X0046000Y0136000D03*
X0056000Y0136000D03*
X0066000Y0136000D03*
X0086000Y0136000D03*
X0096000Y0136000D03*
X0106000Y0136000D03*
X0101000Y0121000D03*
X0121000Y0126000D03*
X0121000Y0111000D03*
X0086000Y0061000D03*
X0066000Y0061000D03*
X0076000Y0031000D03*
X0096000Y0031000D03*
X0111000Y0051000D03*
X0131000Y0051000D03*
X0051000Y0031000D03*
X0026000Y0031000D03*
D12*
X0026000Y0061000D03*
X0036000Y0061000D03*
X0046000Y0061000D03*
X0056000Y0061000D03*
X0101000Y0061000D03*
X0111000Y0061000D03*
X0121000Y0076000D03*
X0131000Y0076000D03*
X0126000Y0091000D03*
X0126000Y0101000D03*
X0086000Y0121000D03*
X0076000Y0121000D03*
X0056000Y0121000D03*
X0046000Y0121000D03*
X0036000Y0121000D03*
X0026000Y0121000D03*
D13*
X0026000Y0019000D02*
X0026000Y0013000D01*
X0036000Y0013000D02*
X0036000Y0019000D01*
X0046000Y0019000D02*
X0046000Y0013000D01*
X0056000Y0013000D02*
X0056000Y0019000D01*
X0066000Y0019000D02*
X0066000Y0013000D01*
X0076000Y0013000D02*
X0076000Y0019000D01*
X0086000Y0019000D02*
X0086000Y0013000D01*
X0096000Y0013000D02*
X0096000Y0019000D01*
X0096000Y0043000D02*
X0096000Y0049000D01*
X0086000Y0049000D02*
X0086000Y0043000D01*
X0076000Y0043000D02*
X0076000Y0049000D01*
X0066000Y0049000D02*
X0066000Y0043000D01*
X0056000Y0043000D02*
X0056000Y0049000D01*
X0046000Y0049000D02*
X0046000Y0043000D01*
X0036000Y0043000D02*
X0036000Y0049000D01*
X0026000Y0049000D02*
X0026000Y0043000D01*
D14*
X0111000Y0026000D03*
X0121000Y0036000D03*
X0131000Y0026000D03*
D15*
X0035335Y0089608D03*
M02*
