%
M48
M72
T01C0.02400
T02C0.03200
T03C0.03600
T04C0.04000
%
T01
X35335Y89608
X111000Y26000
X121000Y36000
X131000Y26000
T02
X26000Y61000
X36000Y61000
X46000Y61000
X56000Y61000
X66000Y61000
X66000Y76000
X56000Y76000
X46000Y76000
X36000Y76000
X26000Y76000
X26000Y106000
X36000Y106000
X46000Y106000
X56000Y106000
X66000Y106000
X76000Y106000
X86000Y106000
X96000Y106000
X106000Y106000
X126000Y101000
X126000Y91000
X121000Y76000
X131000Y76000
X111000Y61000
X101000Y61000
X111000Y51000
X131000Y51000
X106000Y76000
X96000Y76000
X86000Y76000
X76000Y76000
X86000Y61000
X86000Y121000
X76000Y121000
X56000Y121000
X46000Y121000
X36000Y121000
X26000Y121000
T03
X36000Y136000
X46000Y136000
X56000Y136000
X66000Y136000
X86000Y136000
X96000Y136000
X106000Y136000
X101000Y121000
X121000Y126000
X121000Y111000
X96000Y31000
X76000Y31000
X51000Y31000
X26000Y31000
T04
X26000Y16000
X36000Y16000
X46000Y16000
X56000Y16000
X66000Y16000
X76000Y16000
X86000Y16000
X96000Y16000
X96000Y46000
X86000Y46000
X76000Y46000
X66000Y46000
X56000Y46000
X46000Y46000
X36000Y46000
X26000Y46000
M30
