G75*
%MOIN*%
%OFA0B0*%
%FSLAX25Y25*%
%IPPOS*%
%LPD*%
%AMOC8*
5,1,8,0,0,1.08239X$1,22.5*
%
%ADD10C,0.06000*%
%ADD11OC8,0.07100*%
%ADD12OC8,0.06000*%
%ADD13C,0.06800*%
%ADD14C,0.05200*%
%ADD15C,0.04800*%
D10*
X0026000Y0068200D02*
X0026000Y0073400D01*
X0036000Y0073400D02*
X0036000Y0068200D01*
X0046000Y0068200D02*
X0046000Y0073400D01*
X0056000Y0073400D02*
X0056000Y0068200D01*
X0066000Y0068200D02*
X0066000Y0073400D01*
X0076000Y0073400D02*
X0076000Y0068200D01*
X0086000Y0068200D02*
X0086000Y0073400D01*
X0096000Y0073400D02*
X0096000Y0068200D01*
X0106000Y0068200D02*
X0106000Y0073400D01*
X0106000Y0098200D02*
X0106000Y0103400D01*
X0096000Y0103400D02*
X0096000Y0098200D01*
X0086000Y0098200D02*
X0086000Y0103400D01*
X0076000Y0103400D02*
X0076000Y0098200D01*
X0066000Y0098200D02*
X0066000Y0103400D01*
X0056000Y0103400D02*
X0056000Y0098200D01*
X0046000Y0098200D02*
X0046000Y0103400D01*
X0036000Y0103400D02*
X0036000Y0098200D01*
X0026000Y0098200D02*
X0026000Y0103400D01*
D11*
X0026000Y0110800D03*
X0036000Y0125800D03*
X0046000Y0125800D03*
X0056000Y0125800D03*
X0066000Y0125800D03*
X0086000Y0125800D03*
X0096000Y0125800D03*
X0106000Y0125800D03*
X0101000Y0110800D03*
X0126000Y0125800D03*
D12*
X0126000Y0110800D03*
X0116000Y0110800D03*
X0121000Y0095800D03*
X0121000Y0085800D03*
X0116000Y0070800D03*
X0126000Y0070800D03*
X0121000Y0050800D03*
X0111000Y0050800D03*
X0096000Y0060800D03*
X0086000Y0060800D03*
X0076000Y0060800D03*
X0066000Y0060800D03*
X0056000Y0060800D03*
X0046000Y0060800D03*
X0036000Y0060800D03*
X0026000Y0060800D03*
X0036000Y0110800D03*
X0046000Y0110800D03*
X0056000Y0110800D03*
X0066000Y0110800D03*
X0076000Y0110800D03*
X0086000Y0110800D03*
D13*
X0026000Y0018800D02*
X0026000Y0012800D01*
X0036000Y0012800D02*
X0036000Y0018800D01*
X0046000Y0018800D02*
X0046000Y0012800D01*
X0056000Y0012800D02*
X0056000Y0018800D01*
X0066000Y0018800D02*
X0066000Y0012800D01*
X0076000Y0012800D02*
X0076000Y0018800D01*
X0086000Y0018800D02*
X0086000Y0012800D01*
X0096000Y0012800D02*
X0096000Y0018800D01*
X0096000Y0042800D02*
X0096000Y0048800D01*
X0086000Y0048800D02*
X0086000Y0042800D01*
X0076000Y0042800D02*
X0076000Y0048800D01*
X0066000Y0048800D02*
X0066000Y0042800D01*
X0056000Y0042800D02*
X0056000Y0048800D01*
X0046000Y0048800D02*
X0046000Y0042800D01*
X0036000Y0042800D02*
X0036000Y0048800D01*
X0026000Y0048800D02*
X0026000Y0042800D01*
D14*
X0106000Y0025800D03*
X0116000Y0035800D03*
X0126000Y0025800D03*
D15*
X0075700Y0024700D03*
X0058600Y0120100D03*
M02*
