G75*
%MOIN*%
%OFA0B0*%
%FSLAX25Y25*%
%IPPOS*%
%LPD*%
%AMOC8*
5,1,8,0,0,1.08239X$1,22.5*
%
%ADD10C,0.05200*%
%ADD11OC8,0.06300*%
%ADD12OC8,0.05200*%
%ADD13C,0.06000*%
%ADD14C,0.04400*%
%ADD15C,0.01000*%
%ADD16C,0.04000*%
D10*
X0026000Y0068200D02*
X0026000Y0073400D01*
X0036000Y0073400D02*
X0036000Y0068200D01*
X0046000Y0068200D02*
X0046000Y0073400D01*
X0056000Y0073400D02*
X0056000Y0068200D01*
X0066000Y0068200D02*
X0066000Y0073400D01*
X0076000Y0073400D02*
X0076000Y0068200D01*
X0086000Y0068200D02*
X0086000Y0073400D01*
X0096000Y0073400D02*
X0096000Y0068200D01*
X0106000Y0068200D02*
X0106000Y0073400D01*
X0106000Y0098200D02*
X0106000Y0103400D01*
X0096000Y0103400D02*
X0096000Y0098200D01*
X0086000Y0098200D02*
X0086000Y0103400D01*
X0076000Y0103400D02*
X0076000Y0098200D01*
X0066000Y0098200D02*
X0066000Y0103400D01*
X0056000Y0103400D02*
X0056000Y0098200D01*
X0046000Y0098200D02*
X0046000Y0103400D01*
X0036000Y0103400D02*
X0036000Y0098200D01*
X0026000Y0098200D02*
X0026000Y0103400D01*
D11*
X0026000Y0110800D03*
X0036000Y0125800D03*
X0046000Y0125800D03*
X0056000Y0125800D03*
X0066000Y0125800D03*
X0086000Y0125800D03*
X0096000Y0125800D03*
X0106000Y0125800D03*
X0101000Y0110800D03*
X0126000Y0125800D03*
D12*
X0126000Y0110800D03*
X0116000Y0110800D03*
X0121000Y0095800D03*
X0121000Y0085800D03*
X0116000Y0070800D03*
X0126000Y0070800D03*
X0121000Y0050800D03*
X0111000Y0050800D03*
X0096000Y0060800D03*
X0086000Y0060800D03*
X0076000Y0060800D03*
X0066000Y0060800D03*
X0056000Y0060800D03*
X0046000Y0060800D03*
X0036000Y0060800D03*
X0026000Y0060800D03*
X0036000Y0110800D03*
X0046000Y0110800D03*
X0056000Y0110800D03*
X0066000Y0110800D03*
X0076000Y0110800D03*
X0086000Y0110800D03*
D13*
X0026000Y0018800D02*
X0026000Y0012800D01*
X0036000Y0012800D02*
X0036000Y0018800D01*
X0046000Y0018800D02*
X0046000Y0012800D01*
X0056000Y0012800D02*
X0056000Y0018800D01*
X0066000Y0018800D02*
X0066000Y0012800D01*
X0076000Y0012800D02*
X0076000Y0018800D01*
X0086000Y0018800D02*
X0086000Y0012800D01*
X0096000Y0012800D02*
X0096000Y0018800D01*
X0096000Y0042800D02*
X0096000Y0048800D01*
X0086000Y0048800D02*
X0086000Y0042800D01*
X0076000Y0042800D02*
X0076000Y0048800D01*
X0066000Y0048800D02*
X0066000Y0042800D01*
X0056000Y0042800D02*
X0056000Y0048800D01*
X0046000Y0048800D02*
X0046000Y0042800D01*
X0036000Y0042800D02*
X0036000Y0048800D01*
X0026000Y0048800D02*
X0026000Y0042800D01*
D14*
X0106000Y0025800D03*
X0116000Y0035800D03*
X0126000Y0025800D03*
D15*
X0126100Y0026500D01*
X0126100Y0065200D01*
X0130600Y0069700D01*
X0130600Y0095800D01*
X0116200Y0110200D01*
X0116000Y0110800D01*
X0101000Y0110800D02*
X0100900Y0111100D01*
X0091900Y0111100D01*
X0088300Y0114700D01*
X0080200Y0114700D01*
X0076600Y0111100D01*
X0076000Y0110800D01*
X0070300Y0106600D02*
X0066700Y0110200D01*
X0066000Y0110800D01*
X0070300Y0106600D02*
X0070300Y0097600D01*
X0073900Y0094000D01*
X0099100Y0094000D01*
X0121600Y0071500D01*
X0125200Y0071500D01*
X0126000Y0070800D01*
X0116000Y0070800D02*
X0115300Y0070600D01*
X0115300Y0049000D01*
X0111700Y0045400D01*
X0111700Y0026500D01*
X0107200Y0022000D01*
X0104500Y0022000D01*
X0102700Y0023800D01*
X0093700Y0023800D01*
X0086500Y0016600D01*
X0086000Y0015800D01*
X0075700Y0024700D02*
X0091000Y0040000D01*
X0091000Y0061600D01*
X0095500Y0066100D01*
X0095500Y0070600D01*
X0096000Y0070800D01*
X0100000Y0067900D02*
X0100000Y0075100D01*
X0097300Y0077800D01*
X0070300Y0077800D01*
X0070300Y0067000D01*
X0075700Y0061600D01*
X0076000Y0060800D01*
X0072100Y0060700D02*
X0072100Y0049900D01*
X0075700Y0046300D01*
X0076000Y0045800D01*
X0066000Y0045800D02*
X0065800Y0045400D01*
X0051400Y0059800D01*
X0051400Y0074200D01*
X0036100Y0089500D01*
X0036100Y0100300D01*
X0036000Y0100800D01*
X0041500Y0104800D02*
X0041500Y0094000D01*
X0060400Y0075100D01*
X0060400Y0065200D01*
X0056000Y0060800D01*
X0066700Y0066100D02*
X0066700Y0070600D01*
X0066000Y0070800D01*
X0066700Y0071500D01*
X0051400Y0086800D01*
X0051400Y0104800D01*
X0046000Y0110200D01*
X0046000Y0110800D01*
X0041500Y0104800D02*
X0036100Y0110200D01*
X0036000Y0110800D01*
X0030700Y0111100D02*
X0030700Y0066100D01*
X0026200Y0061600D01*
X0026000Y0060800D01*
X0026200Y0060700D01*
X0026200Y0055300D01*
X0035200Y0046300D01*
X0036000Y0045800D01*
X0041500Y0050800D02*
X0046000Y0046300D01*
X0046000Y0045800D01*
X0041500Y0050800D02*
X0041500Y0061600D01*
X0036100Y0067000D01*
X0036100Y0070600D01*
X0036000Y0070800D01*
X0056000Y0045800D02*
X0055900Y0045400D01*
X0048700Y0038200D01*
X0024400Y0038200D01*
X0020800Y0041800D01*
X0020800Y0112000D01*
X0029800Y0121000D01*
X0051400Y0121000D01*
X0055900Y0125500D01*
X0056000Y0125800D01*
X0057700Y0130900D02*
X0061300Y0127300D01*
X0061300Y0122800D01*
X0058600Y0120100D01*
X0049600Y0126400D02*
X0054100Y0130900D01*
X0057700Y0130900D01*
X0049600Y0126400D02*
X0046000Y0126400D01*
X0046000Y0125800D01*
X0036100Y0116500D02*
X0030700Y0111100D01*
X0036100Y0116500D02*
X0093700Y0116500D01*
X0102700Y0125500D01*
X0105400Y0125500D01*
X0106000Y0125800D01*
X0070300Y0094900D02*
X0066700Y0098500D01*
X0066700Y0100300D01*
X0066000Y0100800D01*
X0070300Y0094900D02*
X0070300Y0077800D01*
X0066700Y0066100D02*
X0072100Y0060700D01*
X0081100Y0061600D02*
X0081100Y0035500D01*
X0066700Y0021100D01*
X0066700Y0016600D01*
X0066000Y0015800D01*
X0096000Y0045800D02*
X0105400Y0036400D01*
X0105400Y0026500D01*
X0106000Y0025800D01*
X0110800Y0050800D02*
X0111000Y0050800D01*
X0110800Y0050800D02*
X0110800Y0057100D01*
X0100000Y0067900D01*
X0086000Y0070800D02*
X0085600Y0070600D01*
X0085600Y0066100D01*
X0081100Y0061600D01*
D16*
X0075700Y0024700D03*
X0058600Y0120100D03*
M02*
