G75*
%MOIN*%
%OFA0B0*%
%FSLAX25Y25*%
%IPPOS*%
%LPD*%
%AMOC8*
5,1,8,0,0,1.08239X$1,22.5*
%
%ADD10C,0.05200*%
%ADD11OC8,0.06300*%
%ADD12OC8,0.05200*%
%ADD13C,0.06000*%
%ADD14C,0.04400*%
%ADD15C,0.01000*%
%ADD16C,0.04000*%
D10*
X0026000Y0073400D02*
X0026000Y0078600D01*
X0036000Y0078600D02*
X0036000Y0073400D01*
X0046000Y0073400D02*
X0046000Y0078600D01*
X0056000Y0078600D02*
X0056000Y0073400D01*
X0066000Y0073400D02*
X0066000Y0078600D01*
X0076000Y0078600D02*
X0076000Y0073400D01*
X0086000Y0073400D02*
X0086000Y0078600D01*
X0096000Y0078600D02*
X0096000Y0073400D01*
X0106000Y0073400D02*
X0106000Y0078600D01*
X0106000Y0103400D02*
X0106000Y0108600D01*
X0096000Y0108600D02*
X0096000Y0103400D01*
X0086000Y0103400D02*
X0086000Y0108600D01*
X0076000Y0108600D02*
X0076000Y0103400D01*
X0066000Y0103400D02*
X0066000Y0108600D01*
X0056000Y0108600D02*
X0056000Y0103400D01*
X0046000Y0103400D02*
X0046000Y0108600D01*
X0036000Y0108600D02*
X0036000Y0103400D01*
X0026000Y0103400D02*
X0026000Y0108600D01*
D11*
X0036000Y0136000D03*
X0046000Y0136000D03*
X0056000Y0136000D03*
X0066000Y0136000D03*
X0086000Y0136000D03*
X0096000Y0136000D03*
X0106000Y0136000D03*
X0101000Y0121000D03*
X0121000Y0126000D03*
X0121000Y0111000D03*
X0086000Y0061000D03*
X0066000Y0061000D03*
X0076000Y0031000D03*
X0096000Y0031000D03*
X0111000Y0051000D03*
X0131000Y0051000D03*
X0051000Y0031000D03*
X0026000Y0031000D03*
D12*
X0026000Y0061000D03*
X0036000Y0061000D03*
X0046000Y0061000D03*
X0056000Y0061000D03*
X0101000Y0061000D03*
X0111000Y0061000D03*
X0121000Y0076000D03*
X0131000Y0076000D03*
X0126000Y0091000D03*
X0126000Y0101000D03*
X0086000Y0121000D03*
X0076000Y0121000D03*
X0056000Y0121000D03*
X0046000Y0121000D03*
X0036000Y0121000D03*
X0026000Y0121000D03*
D13*
X0026000Y0019000D02*
X0026000Y0013000D01*
X0036000Y0013000D02*
X0036000Y0019000D01*
X0046000Y0019000D02*
X0046000Y0013000D01*
X0056000Y0013000D02*
X0056000Y0019000D01*
X0066000Y0019000D02*
X0066000Y0013000D01*
X0076000Y0013000D02*
X0076000Y0019000D01*
X0086000Y0019000D02*
X0086000Y0013000D01*
X0096000Y0013000D02*
X0096000Y0019000D01*
X0096000Y0043000D02*
X0096000Y0049000D01*
X0086000Y0049000D02*
X0086000Y0043000D01*
X0076000Y0043000D02*
X0076000Y0049000D01*
X0066000Y0049000D02*
X0066000Y0043000D01*
X0056000Y0043000D02*
X0056000Y0049000D01*
X0046000Y0049000D02*
X0046000Y0043000D01*
X0036000Y0043000D02*
X0036000Y0049000D01*
X0026000Y0049000D02*
X0026000Y0043000D01*
D14*
X0111000Y0026000D03*
X0121000Y0036000D03*
X0131000Y0026000D03*
D15*
X0111232Y0026360D02*
X0111000Y0026000D01*
X0111232Y0026360D02*
X0111232Y0050756D01*
X0111000Y0051000D01*
X0111232Y0051659D01*
X0113039Y0051659D01*
X0135628Y0074248D01*
X0135628Y0097740D01*
X0122978Y0110390D01*
X0121171Y0110390D01*
X0121000Y0111000D01*
X0120268Y0111293D01*
X0117557Y0111293D01*
X0103100Y0125750D01*
X0081415Y0125750D01*
X0076898Y0121232D01*
X0076000Y0121000D01*
X0075994Y0121232D01*
X0074187Y0121232D01*
X0060634Y0134785D01*
X0060634Y0138400D01*
X0057923Y0141110D01*
X0050695Y0141110D01*
X0046177Y0136593D01*
X0046000Y0136000D01*
X0045274Y0135689D01*
X0037142Y0127557D01*
X0036238Y0127557D01*
X0031720Y0123039D01*
X0031720Y0119425D01*
X0034431Y0116715D01*
X0055213Y0116715D01*
X0065152Y0106776D01*
X0066000Y0106000D01*
X0061537Y0114907D02*
X0056116Y0120329D01*
X0056000Y0121000D01*
X0061537Y0114907D02*
X0095872Y0114907D01*
X0100390Y0110390D01*
X0100390Y0103161D01*
X0127496Y0076055D01*
X0130207Y0076055D01*
X0131000Y0076000D01*
X0121000Y0076000D02*
X0120268Y0076055D01*
X0113039Y0083283D01*
X0090451Y0083283D01*
X0090451Y0071537D01*
X0087740Y0068827D01*
X0086837Y0068827D01*
X0076898Y0058888D01*
X0076898Y0046238D01*
X0076000Y0046000D01*
X0076898Y0045335D01*
X0085933Y0036299D01*
X0085933Y0016421D01*
X0086000Y0016000D01*
X0088644Y0008289D02*
X0095872Y0015518D01*
X0096000Y0016000D01*
X0101293Y0011904D02*
X0095872Y0006482D01*
X0045274Y0006482D01*
X0036238Y0015518D01*
X0036000Y0016000D01*
X0036238Y0036299D02*
X0023589Y0036299D01*
X0019071Y0040817D01*
X0019071Y0125750D01*
X0038045Y0144724D01*
X0084126Y0144724D01*
X0092258Y0136593D01*
X0095872Y0136593D01*
X0096000Y0136000D01*
X0097679Y0131171D02*
X0077801Y0131171D01*
X0066055Y0142917D01*
X0046177Y0142917D01*
X0040756Y0137496D01*
X0040756Y0133882D01*
X0036238Y0129364D01*
X0035335Y0129364D01*
X0029913Y0123943D01*
X0029913Y0065213D01*
X0026299Y0061598D01*
X0026000Y0061000D01*
X0025396Y0060695D01*
X0025396Y0055274D01*
X0020878Y0050756D01*
X0020878Y0041720D01*
X0024492Y0038106D01*
X0028106Y0038106D01*
X0036000Y0046000D01*
X0040756Y0050756D02*
X0035335Y0056177D01*
X0035335Y0060695D01*
X0036000Y0061000D01*
X0041659Y0061598D02*
X0041659Y0059791D01*
X0047984Y0053467D01*
X0057923Y0053467D01*
X0065152Y0046238D01*
X0066000Y0046000D01*
X0056116Y0045335D02*
X0056000Y0046000D01*
X0056116Y0045335D02*
X0056116Y0025457D01*
X0061537Y0020035D01*
X0061537Y0011000D01*
X0064248Y0008289D01*
X0088644Y0008289D01*
X0101293Y0011904D02*
X0101293Y0049852D01*
X0096776Y0054370D01*
X0096776Y0075152D01*
X0096000Y0076000D01*
X0090451Y0083283D02*
X0075091Y0083283D01*
X0067862Y0076055D01*
X0066055Y0076055D01*
X0066000Y0076000D01*
X0051598Y0073344D02*
X0051598Y0081476D01*
X0075994Y0105872D01*
X0076000Y0106000D01*
X0077801Y0116715D02*
X0074187Y0116715D01*
X0055213Y0135689D01*
X0056000Y0136000D01*
X0055213Y0136593D01*
X0039852Y0121232D01*
X0036238Y0121232D01*
X0036000Y0121000D01*
X0036000Y0106000D02*
X0035335Y0105872D01*
X0035335Y0095030D01*
X0031720Y0091415D01*
X0031720Y0071537D01*
X0041659Y0061598D01*
X0046000Y0061000D02*
X0046177Y0061598D01*
X0046177Y0067923D01*
X0051598Y0073344D01*
X0046000Y0076000D02*
X0045274Y0076055D01*
X0045274Y0079669D01*
X0035335Y0089608D01*
X0035335Y0056177D02*
X0035335Y0055274D01*
X0026299Y0046238D01*
X0026000Y0046000D01*
X0036238Y0036299D02*
X0040756Y0040817D01*
X0040756Y0050756D01*
X0070573Y0055274D02*
X0070573Y0020939D01*
X0066055Y0016421D01*
X0066000Y0016000D01*
X0070573Y0055274D02*
X0085933Y0070634D01*
X0085933Y0075152D01*
X0086000Y0076000D01*
X0077801Y0116715D02*
X0081415Y0120329D01*
X0085933Y0120329D01*
X0086000Y0121000D01*
X0097679Y0131171D02*
X0102197Y0135689D01*
X0105811Y0135689D01*
X0106000Y0136000D01*
D16*
X0035335Y0089608D03*
M02*
