%
M48
M72
T01C0.0240
T02C0.0320
T03C0.0360
T04C0.0400
%
T01
X7570Y2470
X10600Y2580
X11600Y3580
X12600Y2580
X5860Y12010
T02
X5600Y11080
X6600Y11080
X6600Y10080
X5600Y10080
X4600Y10080
X4600Y11080
X3600Y11080
X3600Y10080
X2600Y10080
X2600Y7080
X3600Y7080
X3600Y6080
X2600Y6080
X4600Y6080
X4600Y7080
X5600Y7080
X6600Y7080
X6600Y6080
X5600Y6080
X7600Y6080
X7600Y7080
X8600Y7080
X9600Y7080
X9600Y6080
X8600Y6080
X10600Y7080
X11600Y7080
X12600Y7080
X12100Y8580
X12100Y9580
X11600Y11080
X12600Y11080
X10600Y10080
X9600Y10080
X8600Y10080
X8600Y11080
X7600Y11080
X7600Y10080
X11100Y5080
X12100Y5080
T03
X10100Y11080
X9600Y12580
X8600Y12580
X10600Y12580
X12600Y12580
X6600Y12580
X5600Y12580
X4600Y12580
X3600Y12580
X2600Y11080
T04
X2600Y1580
X3600Y1580
X4600Y1580
X5600Y1580
X6600Y1580
X7600Y1580
X8600Y1580
X9600Y1580
X9600Y4580
X8600Y4580
X7600Y4580
X6600Y4580
X5600Y4580
X4600Y4580
X3600Y4580
X2600Y4580
M30
